<svg xmlns="http://www.w3.org/2000/svg" version="1.1" xmlns:xlink="http://www.w3.org/1999/xlink" xmlns:svgjs="http://svgjs.dev/svgjs" width="2000" height="474" viewBox="0 0 2000 474"><g transform="matrix(1,0,0,1,-1.2121212121212466,-1.2538317115085817)"><svg viewBox="0 0 396 94" data-background-color="#ffba00" preserveAspectRatio="xMidYMid meet" height="474" width="2000" xmlns="http://www.w3.org/2000/svg" xmlns:xlink="http://www.w3.org/1999/xlink"><g id="tight-bounds" transform="matrix(1,0,0,1,0.2400000000000091,0.24865017063672212)"><svg viewBox="0 0 395.52 93.50269965872656" height="93.50269965872656" width="395.52"><g><svg viewBox="0 0 395.52 93.50269965872656" height="93.50269965872656" width="395.52"><g><svg viewBox="0 0 395.52 93.50269965872656" height="93.50269965872656" width="395.52"><g id="textblocktransform"><svg viewBox="0 0 395.52 93.50269965872656" height="93.50269965872656" width="395.52" id="textblock"><g><svg viewBox="0 0 395.52 57.4654082631682" height="57.4654082631682" width="395.52"><g transform="matrix(1,0,0,1,0,0)"><svg width="395.52" viewBox="1.95 -36.75 255.32999999999998 37.1" height="57.4654082631682" data-palette-color="#ffffff"><path d="M14.85 0.35L14.85 0.35Q11.5 0.35 9.08-0.88 6.65-2.1 5.08-4.23 3.5-6.35 2.73-9.05 1.95-11.75 1.95-14.75L1.95-14.75Q1.95-18.55 3.13-22.35 4.3-26.15 6.58-29.3 8.85-32.45 12.15-34.38 15.45-36.3 19.7-36.3L19.7-36.3Q23.05-36.3 25.48-35.08 27.9-33.85 29.48-31.73 31.05-29.6 31.83-26.9 32.6-24.2 32.6-21.2L32.6-21.2Q32.6-17.45 31.43-13.63 30.25-9.8 27.98-6.65 25.7-3.5 22.4-1.58 19.1 0.35 14.85 0.35ZM16.7-6L16.7-6Q18.45-6 19.75-7.2 21.05-8.4 21.93-10.38 22.8-12.35 23.25-14.75 23.7-17.15 23.7-19.6L23.7-19.6Q23.7-22.3 23.13-24.68 22.55-27.05 21.33-28.53 20.1-30 18.15-30L18.15-30Q16.45-30 15.1-28.83 13.75-27.65 12.8-25.68 11.85-23.7 11.38-21.33 10.9-18.95 10.9-16.55L10.9-16.55Q10.9-13.8 11.55-11.4 12.2-9 13.5-7.5 14.8-6 16.7-6ZM40.95 0.2L40.95 0.2Q39.15 0.2 37.75-1.28 36.35-2.75 36.35-5.45L36.35-5.45Q36.35-6.75 36.65-8.4 36.95-10.05 37.35-11.78 37.75-13.5 38.05-15.03 38.35-16.55 38.35-17.55L38.35-17.55Q38.35-18.6 37.97-19.23 37.6-19.85 37-19.85L37-19.85Q36.05-19.85 35.05-18.55L35.05-18.55 34.75-18.75Q34.7-19.55 35.1-20.65 35.5-21.75 36.35-22.78 37.2-23.8 38.52-24.5 39.85-25.2 41.65-25.2L41.65-25.2Q44.3-25.2 45.5-23.68 46.7-22.15 46.7-20L46.7-20Q46.7-19.65 46.67-19.28 46.65-18.9 46.6-18.55L46.6-18.55Q48.4-21.8 50.37-23.53 52.35-25.25 54.05-25.25L54.05-25.25Q55.65-25.25 56.4-24 57.15-22.75 57.15-21L57.15-21Q57.15-19.4 56.52-17.75 55.9-16.1 54.67-15.03 53.45-13.95 51.7-14L51.7-14 51.5-14.1Q51.45-15.4 50.65-16.15 49.85-16.9 48.85-16.9L48.85-16.9Q47.5-16.9 46.32-15.55 45.15-14.2 45.15-11.65L45.15-11.65Q45.15-10.1 45.5-8.3 45.85-6.5 45.85-5.25L45.85-5.25Q45.85-3.75 45.15-2.5 44.45-1.25 43.35-0.53 42.25 0.2 40.95 0.2ZM65.8 0.2L65.8 0.2Q64 0.2 62.42-1.05 60.85-2.3 59.87-4.7 58.9-7.1 58.9-10.5L58.9-10.5Q58.9-14 59.9-16.75 60.9-19.5 62.52-21.43 64.15-23.35 66.07-24.35 68-25.35 69.85-25.35L69.85-25.35Q71.9-25.35 73.5-24.08 75.1-22.8 75.7-20.1L75.7-20.1Q76.15-22.6 76.47-24.88 76.8-27.15 76.8-28.9L76.8-28.9Q76.8-31.2 76.2-32.25L76.2-32.25 76.2-32.55Q77.35-33.85 78.72-34.48 80.1-35.1 81.35-35.1L81.35-35.1Q83-35.1 84.15-34.08 85.3-33.05 85.3-31.15L85.3-31.15Q85.3-30.1 84.95-28.05 84.6-26 84.1-23.38 83.6-20.75 83.07-17.98 82.55-15.2 82.2-12.68 81.85-10.15 81.85-8.3L81.85-8.3Q81.85-6.75 82.17-5.83 82.5-4.9 83.25-4.9L83.25-4.9Q83.8-4.9 84.37-5.28 84.95-5.65 85.15-6.15L85.15-6.15 85.5-5.9Q85.5-4.25 84.45-2.88 83.4-1.5 81.8-0.65 80.2 0.2 78.5 0.2L78.5 0.2Q76.65 0.2 75.57-0.83 74.5-1.85 74.05-3.45 73.6-5.05 73.55-6.75L73.55-6.75Q72-3.15 69.92-1.48 67.85 0.2 65.8 0.2ZM69.15-6.15L69.15-6.15Q70.45-6.15 72.05-8.5 73.65-10.85 74.85-15.35L74.85-15.35 75.15-16.9Q74.35-18.75 73.42-19.53 72.5-20.3 71.65-20.3L71.65-20.3Q70.4-20.3 69.3-18.93 68.2-17.55 67.52-15.43 66.85-13.3 66.85-10.95L66.85-10.95Q66.85-8.7 67.5-7.43 68.15-6.15 69.15-6.15ZM98.49 0.35L98.49 0.35Q94.84 0.35 92.44-1.13 90.04-2.6 88.84-5.03 87.64-7.45 87.64-10.25L87.64-10.25Q87.64-12.9 88.67-15.58 89.69-18.25 91.67-20.45 93.64-22.65 96.47-24 99.29-25.35 102.84-25.35L102.84-25.35Q107.24-25.35 109.27-23.38 111.29-21.4 111.29-18.6L111.29-18.6Q111.29-16.2 110.02-14.18 108.74-12.15 106.64-10.93 104.54-9.7 102.04-9.7L102.04-9.7Q100.74-9.7 99.39-10.1 98.04-10.5 96.74-11.35L96.74-11.35Q96.99-8.25 98.54-6.85 100.09-5.45 102.24-5.45L102.24-5.45Q103.74-5.45 105.24-6.03 106.74-6.6 108.02-7.53 109.29-8.45 109.99-9.5L109.99-9.5 110.34-9.25Q110.34-6.65 109.27-4.83 108.19-3 106.44-1.85 104.69-0.7 102.62-0.18 100.54 0.35 98.49 0.35ZM99.64-13.15L99.64-13.15Q101.24-13.15 102.24-14.08 103.24-15 103.74-16.25 104.24-17.5 104.24-18.45L104.24-18.45Q104.24-19.6 103.59-20.38 102.94-21.15 101.79-21.15L101.79-21.15Q100.89-21.15 99.82-20.5 98.74-19.85 97.89-18.28 97.04-16.7 96.79-13.9L96.79-13.9Q98.39-13.15 99.64-13.15ZM119.64 0.2L119.64 0.2Q117.84 0.2 116.44-1.28 115.04-2.75 115.04-5.45L115.04-5.45Q115.04-6.75 115.34-8.4 115.64-10.05 116.04-11.78 116.44-13.5 116.74-15.03 117.04-16.55 117.04-17.55L117.04-17.55Q117.04-18.6 116.67-19.23 116.29-19.85 115.69-19.85L115.69-19.85Q114.74-19.85 113.74-18.55L113.74-18.55 113.44-18.75Q113.39-19.55 113.79-20.65 114.19-21.75 115.04-22.78 115.89-23.8 117.22-24.5 118.54-25.2 120.34-25.2L120.34-25.2Q122.99-25.2 124.19-23.68 125.39-22.15 125.39-20L125.39-20Q125.39-19.65 125.37-19.28 125.34-18.9 125.29-18.55L125.29-18.55Q127.09-21.8 129.06-23.53 131.04-25.25 132.74-25.25L132.74-25.25Q134.34-25.25 135.09-24 135.84-22.75 135.84-21L135.84-21Q135.84-19.4 135.22-17.75 134.59-16.1 133.37-15.03 132.14-13.95 130.39-14L130.39-14 130.19-14.1Q130.14-15.4 129.34-16.15 128.54-16.9 127.54-16.9L127.54-16.9Q126.19-16.9 125.02-15.55 123.84-14.2 123.84-11.65L123.84-11.65Q123.84-10.1 124.19-8.3 124.54-6.5 124.54-5.25L124.54-5.25Q124.54-3.75 123.84-2.5 123.14-1.25 122.04-0.53 120.94 0.2 119.64 0.2ZM151.94 0.2L151.94 0.2Q150.14 0.2 148.69-1.3 147.24-2.8 147.24-6.25L147.24-6.25Q147.24-9.05 147.89-11.75 148.53-14.45 149.36-17.23 150.19-20 150.76-22.98 151.34-25.95 151.14-29.25L151.14-29.25Q149.78-29.05 148.49-28.55 147.19-28.05 145.94-27.1L145.94-27.1Q145.94-30.25 146.49-32.23 147.03-34.2 148.64-35.1 150.24-36 153.39-36L153.39-36Q155.09-36 157.19-35.75 159.28-35.5 161.51-35.25 163.74-35 165.74-35L165.74-35Q167.69-35 169.24-35.38 170.79-35.75 171.64-36.75L171.64-36.75Q172.64-36.1 173.16-34.98 173.69-33.85 173.69-32.55L173.69-32.55Q173.69-31.2 173.06-29.93 172.44-28.65 171.14-27.83 169.84-27 167.74-27L167.74-27Q165.54-27 162.94-27.7 160.34-28.4 157.59-28.9L157.59-28.9Q157.84-27.8 157.96-26.7 158.09-25.6 158.09-24.45L158.09-24.45Q158.09-23.2 157.99-21.98 157.89-20.75 157.69-19.45L157.69-19.45Q158.74-20 160.24-20.45 161.74-20.9 163.31-21.2 164.89-21.5 166.14-21.5L166.14-21.5Q166.94-21.5 167.54-21.35L167.54-21.35Q168.04-20.3 168.04-18.8L168.04-18.8Q168.04-16.4 166.84-13.9L166.84-13.9 166.49-13.75Q164.64-14.75 162.21-15.3 159.78-15.85 157.14-16.05L157.14-16.05Q156.64-13.2 156.19-10.25 155.74-7.3 155.74-4.2L155.74-4.2Q155.74-3.55 155.76-2.85 155.78-2.15 155.84-1.45L155.84-1.45Q154.19 0.2 151.94 0.2ZM184.63 0.35L184.63 0.35Q180.88 0.35 178.43-1.15 175.98-2.65 174.81-5.13 173.63-7.6 173.63-10.4L173.63-10.4Q173.63-13.05 174.61-15.7 175.58-18.35 177.46-20.53 179.33-22.7 182.03-24.03 184.73-25.35 188.23-25.35L188.23-25.35Q191.98-25.35 194.41-23.83 196.83-22.3 198.01-19.8 199.18-17.3 199.18-14.45L199.18-14.45Q199.18-11.85 198.23-9.22 197.28-6.6 195.41-4.42 193.53-2.25 190.83-0.95 188.13 0.35 184.63 0.35ZM185.98-3.9L185.98-3.9Q187.33-3.9 188.23-5.3 189.13-6.7 189.58-8.88 190.03-11.05 190.03-13.3L190.03-13.3Q190.03-15.3 189.66-17.07 189.28-18.85 188.53-19.98 187.78-21.1 186.58-21.1L186.58-21.1Q185.28-21.1 184.36-19.7 183.43-18.3 182.98-16.15 182.53-14 182.53-11.7L182.53-11.7Q182.53-9.7 182.91-7.93 183.28-6.15 184.03-5.03 184.78-3.9 185.98-3.9ZM212.98 0.35L212.98 0.35Q209.23 0.35 206.78-1.15 204.33-2.65 203.16-5.13 201.98-7.6 201.98-10.4L201.98-10.4Q201.98-13.05 202.96-15.7 203.93-18.35 205.81-20.53 207.68-22.7 210.38-24.03 213.08-25.35 216.58-25.35L216.58-25.35Q220.33-25.35 222.76-23.83 225.18-22.3 226.36-19.8 227.53-17.3 227.53-14.45L227.53-14.45Q227.53-11.85 226.58-9.22 225.63-6.6 223.76-4.42 221.88-2.25 219.18-0.95 216.48 0.35 212.98 0.35ZM214.33-3.9L214.33-3.9Q215.68-3.9 216.58-5.3 217.48-6.7 217.93-8.88 218.38-11.05 218.38-13.3L218.38-13.3Q218.38-15.3 218.01-17.07 217.63-18.85 216.88-19.98 216.13-21.1 214.93-21.1L214.93-21.1Q213.63-21.1 212.71-19.7 211.78-18.3 211.33-16.15 210.88-14 210.88-11.7L210.88-11.7Q210.88-9.7 211.26-7.93 211.63-6.15 212.38-5.03 213.13-3.9 214.33-3.9ZM237.58 0.2L237.58 0.2Q235.78 0.2 234.2-1.05 232.63-2.3 231.65-4.7 230.68-7.1 230.68-10.5L230.68-10.5Q230.68-14 231.68-16.75 232.68-19.5 234.3-21.43 235.93-23.35 237.85-24.35 239.78-25.35 241.63-25.35L241.63-25.35Q243.68-25.35 245.28-24.08 246.88-22.8 247.48-20.1L247.48-20.1Q247.93-22.6 248.25-24.88 248.58-27.15 248.58-28.9L248.58-28.9Q248.58-31.2 247.98-32.25L247.98-32.25 247.98-32.55Q249.13-33.85 250.5-34.48 251.88-35.1 253.13-35.1L253.13-35.1Q254.78-35.1 255.93-34.08 257.08-33.05 257.08-31.15L257.08-31.15Q257.08-30.1 256.73-28.05 256.38-26 255.88-23.38 255.38-20.75 254.85-17.98 254.33-15.2 253.98-12.68 253.63-10.15 253.63-8.3L253.63-8.3Q253.63-6.75 253.95-5.83 254.28-4.9 255.03-4.9L255.03-4.9Q255.58-4.9 256.15-5.28 256.73-5.65 256.93-6.15L256.93-6.15 257.28-5.9Q257.28-4.25 256.23-2.88 255.18-1.5 253.58-0.65 251.98 0.2 250.28 0.2L250.28 0.2Q248.43 0.2 247.35-0.83 246.28-1.85 245.83-3.45 245.38-5.05 245.33-6.75L245.33-6.75Q243.78-3.15 241.7-1.48 239.63 0.2 237.58 0.2ZM240.93-6.15L240.93-6.15Q242.23-6.15 243.83-8.5 245.43-10.85 246.63-15.35L246.63-15.35 246.93-16.9Q246.13-18.75 245.2-19.53 244.28-20.3 243.43-20.3L243.43-20.3Q242.18-20.3 241.08-18.93 239.98-17.55 239.3-15.43 238.63-13.3 238.63-10.95L238.63-10.95Q238.63-8.7 239.28-7.43 239.93-6.15 240.93-6.15Z" opacity="1" transform="matrix(1,0,0,1,0,0)" fill="#ffffff" class="wordmark-text-0" data-fill-palette-color="primary" id="text-0"></path></svg></g></svg></g><g transform="matrix(1,0,0,1,163.310208,71.0316119843039)"><svg viewBox="0 0 232.209792 22.471087674422662" height="22.471087674422662" width="232.209792"><g transform="matrix(1,0,0,1,0,0)"><svg width="232.209792" viewBox="1.292083233342 -38.38 524.707916766658 50.78" height="22.471087674422662" data-palette-color="#ffffff"><path d="M10.25 0.61L10.25 0.61Q7.64 0.61 5.92 0.17 4.2-0.27 3.16-0.89 2.12-1.51 1.54-2.03L1.54-2.03Q1.1-2.44 1.44-2.95L1.44-2.95 3.93-6.64Q4.47-7.42 5.15-6.74L5.15-6.74Q5.86-6.05 7.07-5.41 8.28-4.76 10.08-4.76L10.08-4.76Q11.69-4.76 12.73-5.31 13.77-5.86 13.77-6.91L13.77-6.91Q13.77-7.64 13.31-8.11 12.84-8.57 11.67-9.06 10.5-9.55 8.4-10.3L8.4-10.3Q5.3-11.43 3.71-13.01 2.12-14.6 2.12-17.65L2.12-17.65Q2.12-20.46 3.67-22.22 5.22-23.97 7.65-24.79 10.08-25.61 12.72-25.61L12.72-25.61Q16.06-25.61 17.42-24.99 18.77-24.37 19.17-24.02L19.17-24.02Q19.53-23.71 19.68-23.29L19.68-23.29Q20-22.34 20.17-20.78L20.17-20.78Q20.26-19.87 19.7-19.58L19.7-19.58Q19.41-19.41 18.77-19.21 18.14-19.02 17.5-18.87 16.87-18.73 16.55-18.73L16.55-18.73Q16.46-18.73 16.35-18.79 16.24-18.85 15.97-19.09L15.97-19.09Q15.65-19.41 14.88-19.82 14.11-20.24 12.77-20.24L12.77-20.24Q11.45-20.24 10.56-19.81 9.67-19.38 9.67-18.31L9.67-18.31Q9.67-17.14 10.8-16.55 11.94-15.97 14.55-15.04L14.55-15.04Q16.6-14.33 18.13-13.49 19.65-12.65 20.48-11.29 21.31-9.94 21.31-7.64L21.31-7.64Q21.31-4.66 19.69-2.84 18.07-1.03 15.54-0.21 13.01 0.61 10.25 0.61ZM38.52-25.61L38.52-25.61Q41.43-25.61 42.75-25.13 44.06-24.66 44.41-24.39L44.41-24.39Q44.94-24.05 45.24-23.51L45.24-23.51Q45.41-23.24 45.63-22.58 45.85-21.92 45.94-21.14L45.94-21.14Q46.07-20.53 45.97-20.28 45.87-20.02 45.36-19.65L45.36-19.65Q44.77-19.26 44.08-18.96 43.38-18.65 42.94-18.53L42.94-18.53Q42.58-18.43 42.38-18.48 42.19-18.53 41.84-18.77L41.84-18.77Q41.45-19.04 40.74-19.37 40.04-19.7 38.79-19.7L38.79-19.7Q37.2-19.7 35.78-18.92 34.35-18.14 33.46-16.58 32.57-15.01 32.57-12.67L32.57-12.67Q32.57-9.16 34.41-7.23 36.25-5.3 39.35-5.3L39.35-5.3Q40.94-5.3 41.99-5.63 43.04-5.96 43.65-6.3L43.65-6.3Q44.14-6.57 44.39-6.43 44.65-6.3 44.8-5.96L44.8-5.96 46.58-1.93Q46.85-1.29 46.29-1.03L46.29-1.03Q45.38-0.56 43.31 0.02 41.23 0.61 38.18 0.61L38.18 0.61Q32.05 0.61 28.39-2.65 24.73-5.91 24.73-12.4L24.73-12.4Q24.73-16.55 26.41-19.51 28.1-22.46 31.2-24.04 34.3-25.61 38.52-25.61ZM57.03 0.61L57.03 0.61Q53.44 0.61 51.33-1.4 49.21-3.42 49.21-6.96L49.21-6.96Q49.21-8.79 49.89-10.36 50.56-11.94 52.23-13.15 53.9-14.36 56.92-15.09 59.93-15.82 64.62-15.94L64.62-15.94Q64.62-18.16 63.51-19.14 62.4-20.12 60.18-20.12L60.18-20.12Q58.17-20.12 56.9-19.43 55.63-18.75 55.32-18.51L55.32-18.51Q54.98-18.21 54.49-18.29L54.49-18.29Q53.83-18.38 53.08-18.63 52.34-18.87 51.48-19.19L51.48-19.19Q51.36-19.24 51.22-19.35 51.07-19.46 51.04-19.68L51.04-19.68Q51.04-19.8 51.07-19.98 51.09-20.17 51.19-20.65L51.19-20.65Q51.29-21.14 51.48-21.86 51.68-22.58 51.85-22.97L51.85-22.97Q52.07-23.39 52.58-23.75L52.58-23.75Q53-24.1 55.1-24.85 57.2-25.61 61.18-25.61L61.18-25.61Q72.14-25.61 72.14-14.94L72.14-14.94 72.14-1.12Q72.14-0.66 71.88-0.33 71.63 0 71.02 0L71.02 0 67.35 0Q66.96 0 66.66-0.11 66.35-0.22 66.08-0.54L66.08-0.54 64.57-2.49 64.4-2.49Q63.28-0.85 61.38-0.12 59.49 0.61 57.03 0.61ZM59.71-5.05L59.71-5.05Q61.96-5.05 63.11-6.2 64.25-7.35 64.57-8.57L64.57-8.57 64.57-11.28Q61.18-11.28 59.48-10.75 57.78-10.23 57.22-9.39 56.66-8.54 56.66-7.57L56.66-7.57Q56.66-6.15 57.54-5.6 58.42-5.05 59.71-5.05ZM102.9-15.55L102.9-15.55 102.9-1.29Q102.9-0.56 102.59-0.28 102.29 0 101.56 0L101.56 0 96.53 0Q95.79 0 95.49-0.28 95.18-0.56 95.18-1.29L95.18-1.29 95.18-14.28Q95.18-16.94 94.06-18.16 92.94-19.38 91.01-19.38L91.01-19.38Q89.08-19.38 88.04-18.55 87-17.72 86.44-16.46L86.44-16.46 86.44-1.29Q86.44-0.56 86.14-0.28 85.83 0 85.1 0L85.1 0 80.07 0Q79.34 0 79.03-0.28 78.73-0.56 78.73-1.29L78.73-1.29 78.73-21.75Q78.73-22.34 78.97-22.66L78.97-22.66Q79.48-23.34 80.2-24.05 80.93-24.76 81.97-25.56L81.97-25.56Q82.29-25.81 82.59-25.81L82.59-25.81Q82.85-25.81 83.2-25.56L83.2-25.56Q84.22-24.76 84.95-24.02 85.69-23.29 86.25-22.51L86.25-22.51 86.37-22.51Q86.78-23.05 87.61-23.77 88.44-24.49 89.95-25.05 91.45-25.61 93.79-25.61L93.79-25.61Q96.09-25.61 98.16-24.68 100.24-23.75 101.57-21.56 102.9-19.36 102.9-15.55ZM135.93-25.63L135.93-25.63Q139.1-25.63 141.26-25.17 143.42-24.71 144.88-24.02 146.35-23.34 147.45-22.66L147.45-22.66 147.45 8.35Q147.45 8.94 147.2 9.25L147.2 9.25Q146.18 10.6 144.2 12.16L144.2 12.16Q143.86 12.4 143.59 12.4L143.59 12.4Q143.3 12.4 142.98 12.16L142.98 12.16Q141.93 11.35 141.21 10.64 140.49 9.94 139.98 9.25L139.98 9.25Q139.73 8.94 139.73 8.35L139.73 8.35 139.73-2.49 139.64-2.49Q139.1-1.81 138.24-1.1 137.39-0.39 136.03 0.1 134.68 0.59 132.56 0.59L132.56 0.59Q128.87 0.59 126.51-1.01 124.16-2.61 123.05-5.42 121.94-8.23 121.94-11.82L121.94-11.82Q121.94-15.75 123.23-18.87 124.52-22 127.58-23.82 130.63-25.63 135.93-25.63ZM135.66-19.73L135.66-19.73Q132.82-19.73 131.34-17.82 129.85-15.92 129.85-11.91L129.85-11.91Q129.85-5.64 135.02-5.64L135.02-5.64Q137.05-5.64 138.12-6.47 139.2-7.3 139.73-8.57L139.73-8.57 139.73-18.65Q139.2-19.04 138.22-19.38 137.24-19.73 135.66-19.73ZM161.75-22.17L161.75-20.36 161.85-20.36Q163.68-25.44 168.44-25.44L168.44-25.44Q169.05-25.44 169.44-25.38 169.83-25.32 169.98-25.27L169.98-25.27Q170.35-25.15 170.35-24.71L170.35-24.71 170.35-18.82Q170.35-18.07 169.47-18.41L169.47-18.41Q169.17-18.53 168.63-18.66 168.08-18.8 167.1-18.8L167.1-18.8Q164.58-18.8 163.17-16.96 161.75-15.11 161.75-11.94L161.75-11.94 161.75-1.29Q161.75-0.56 161.45-0.28 161.14 0 160.41 0L160.41 0 155.38 0Q154.65 0 154.34-0.28 154.04-0.56 154.04-1.29L154.04-1.29 154.04-21.75Q154.04-22.34 154.28-22.66L154.28-22.66Q154.79-23.34 155.51-24.05 156.24-24.76 157.28-25.56L157.28-25.56Q157.48-25.71 157.68-25.76 157.87-25.81 158.02-25.81L158.02-25.81Q158.36-25.81 158.7-25.56L158.7-25.56Q160.73-23.97 161.53-22.85L161.53-22.85Q161.75-22.56 161.75-22.17L161.75-22.17ZM197.47-19.31L197.47-1.29Q197.47-0.56 197.16-0.28 196.86 0 196.12 0L196.12 0 191.09 0Q190.36 0 190.06-0.28 189.75-0.56 189.75-1.29L189.75-1.29 189.75-19.31 186.87-19.31Q186.14-19.31 185.86-19.62 185.58-19.92 185.58-20.65L185.58-20.65 185.58-23.66Q185.58-24.39 185.86-24.69 186.14-25 186.87-25L186.87-25 189.75-25 189.75-28.1Q189.75-31.05 190.93-33.18 192.12-35.3 194.13-36.45 196.15-37.6 198.61-37.6L198.61-37.6Q199.76-37.6 200.36-37.5 200.96-37.4 201.25-37.21L201.25-37.21Q202.2-36.67 203.89-35.01L203.89-35.01Q204.15-34.72 204.15-34.42L204.15-34.42Q204.15-34.11 203.74-33.69L203.74-33.69Q203.01-32.93 202.35-32.41 201.69-31.88 201.27-31.62L201.27-31.62Q200.91-31.4 200.63-31.36 200.35-31.32 199.86-31.32L199.86-31.32Q197.47-31.32 197.47-27.66L197.47-27.66 197.47-25 201.88-25Q202.62-25 202.9-24.69 203.18-24.39 203.18-23.66L203.18-23.66 203.18-20.65Q203.18-19.92 202.9-19.62 202.62-19.31 201.88-19.31L201.88-19.31 197.47-19.31ZM218.85 0.61L218.85 0.61Q212.7 0.61 209.11-2.66 205.52-5.93 205.52-12.4L205.52-12.4Q205.52-19.04 209.24-22.33 212.97-25.61 219.19-25.61L219.19-25.61Q225.2-25.61 228.81-22.38 232.42-19.14 232.42-12.84L232.42-12.84Q232.42-6.27 228.81-2.83 225.2 0.61 218.85 0.61ZM219.09-5.3L219.09-5.3Q221.78-5.3 223.15-6.97 224.51-8.64 224.51-12.7L224.51-12.7Q224.51-16.55 223.13-18.13 221.75-19.7 219.04-19.7L219.04-19.7Q216.43-19.7 214.93-18.01 213.43-16.31 213.43-12.5L213.43-12.5Q213.43-8.52 214.86-6.91 216.29-5.3 219.09-5.3ZM245.39-22.17L245.39-20.36 245.48-20.36Q247.31-25.44 252.07-25.44L252.07-25.44Q252.68-25.44 253.08-25.38 253.47-25.32 253.61-25.27L253.61-25.27Q253.98-25.15 253.98-24.71L253.98-24.71 253.98-18.82Q253.98-18.07 253.1-18.41L253.1-18.41Q252.81-18.53 252.26-18.66 251.71-18.8 250.73-18.8L250.73-18.8Q248.22-18.8 246.8-16.96 245.39-15.11 245.39-11.94L245.39-11.94 245.39-1.29Q245.39-0.56 245.08-0.28 244.77 0 244.04 0L244.04 0 239.01 0Q238.28 0 237.98-0.28 237.67-0.56 237.67-1.29L237.67-1.29 237.67-21.75Q237.67-22.34 237.91-22.66L237.91-22.66Q238.43-23.34 239.15-24.05 239.87-24.76 240.92-25.56L240.92-25.56Q241.11-25.71 241.31-25.76 241.5-25.81 241.65-25.81L241.65-25.81Q241.99-25.81 242.33-25.56L242.33-25.56Q244.36-23.97 245.17-22.85L245.17-22.85Q245.39-22.56 245.39-22.17L245.39-22.17ZM272.19 11.74L272.19 11.74Q271.28 11.74 270.82 11.56 270.36 11.38 270.04 11.11L270.04 11.11Q269.4 10.5 268.67 9.4L268.67 9.4Q268.5 9.13 268.3 8.78 268.11 8.42 268.11 8.18L268.11 8.18Q268.11 7.91 268.23 7.69 268.35 7.47 268.52 7.28L268.52 7.28Q268.92 6.76 269.48 6.21 270.04 5.66 270.43 5.35L270.43 5.35Q270.7 5.13 270.87 5.07 271.04 5 271.16 5L271.16 5Q271.28 5 271.53 5.05 271.77 5.1 272.26 5.1L272.26 5.1Q273.94 5.1 275.78 4 277.61 2.91 279.39-0.12L279.39-0.12Q277.53-1.83 275.74-4.41 273.94-6.98 272.5-10 271.06-13.01 270.2-16.02 269.33-19.02 269.33-21.56L269.33-21.56Q269.33-22.09 269.6-22.41L269.6-22.41Q270.72-23.8 272.8-25.32L272.8-25.32Q273.16-25.56 273.46-25.56L273.46-25.56Q273.77-25.56 274.12-25.32L274.12-25.32Q275.24-24.51 276.01-23.8 276.78-23.1 277.31-22.41L277.31-22.41Q277.58-22.09 277.58-21.51L277.58-21.51 277.58-21.61Q277.58-19.68 278.05-17.53 278.51-15.38 279.32-13.34 280.12-11.3 281.12-9.66 282.12-8.01 283.2-7.03L283.2-7.03 283.32-7.03Q283.81-7.96 284.41-9.7 285-11.45 285.54-13.59 286.08-15.72 286.42-17.83 286.76-19.95 286.76-21.58L286.76-21.58 286.76-21.51Q286.76-22.09 287.01-22.41L287.01-22.41Q287.57-23.1 288.32-23.8 289.08-24.51 290.16-25.32L290.16-25.32Q290.5-25.56 290.79-25.56L290.79-25.56Q291.13-25.56 291.43-25.32L291.43-25.32Q292.52-24.51 293.28-23.8 294.04-23.1 294.57-22.41L294.57-22.41Q294.82-22.09 294.82-21.53L294.82-21.53Q294.79-19.31 293.96-15.73 293.13-12.16 291.55-7.98 289.96-3.81 287.69 0.2L287.69 0.2Q284.3 6.23 280.37 8.98 276.43 11.74 272.19 11.74ZM294.82-21.58L294.82-21.58 294.82-21.51 294.82-21.53Q294.82-21.56 294.82-21.58ZM269.33-21.51L269.33-21.58 269.33-21.56 269.33-21.51ZM311.27 0.61L311.27 0.61Q305.12 0.61 301.53-2.66 297.94-5.93 297.94-12.4L297.94-12.4Q297.94-19.04 301.66-22.33 305.39-25.61 311.61-25.61L311.61-25.61Q317.62-25.61 321.23-22.38 324.85-19.14 324.85-12.84L324.85-12.84Q324.85-6.27 321.23-2.83 317.62 0.61 311.27 0.61ZM311.52-5.3L311.52-5.3Q314.2-5.3 315.57-6.97 316.94-8.64 316.94-12.7L316.94-12.7Q316.94-16.55 315.56-18.13 314.18-19.7 311.47-19.7L311.47-19.7Q308.85-19.7 307.35-18.01 305.85-16.31 305.85-12.5L305.85-12.5Q305.85-8.52 307.28-6.91 308.71-5.3 311.52-5.3ZM338.81 0.61L338.81 0.61Q330.12 0.61 330.12-9.91L330.12-9.91 330.09-22.31Q330.09-22.9 330.34-23.22L330.34-23.22Q331.36-24.56 333.34-26.12L333.34-26.12Q333.68-26.37 333.95-26.37L333.95-26.37Q334.27-26.37 334.56-26.12L334.56-26.12Q335.61-25.32 336.33-24.61 337.05-23.9 337.56-23.22L337.56-23.22Q337.81-22.9 337.81-22.31L337.81-22.31 337.81-10.6Q337.81-5.3 342.01-5.3L342.01-5.3Q344.08-5.3 345.33-6.75 346.57-8.2 346.57-10.69L346.57-10.69 346.57-22.31Q346.57-22.9 346.82-23.22L346.82-23.22Q347.84-24.56 349.82-26.12L349.82-26.12Q350.16-26.37 350.43-26.37L350.43-26.37Q350.75-26.37 351.04-26.12L351.04-26.12Q352.09-25.32 352.81-24.61 353.53-23.9 354.04-23.22L354.04-23.22Q354.29-22.9 354.29-22.31L354.29-22.31 354.29-1.12Q354.29-0.66 353.97-0.33 353.65 0 353.16 0L353.16 0 349.5 0Q349.11 0 348.81-0.11 348.5-0.22 348.23-0.54L348.23-0.54 346.72-2.49 346.55-2.49Q346.16-1.93 345.34-1.2 344.52-0.46 342.97 0.07 341.42 0.61 338.81 0.61ZM368.59-22.17L368.59-20.36 368.69-20.36Q370.52-25.44 375.28-25.44L375.28-25.44Q375.89-25.44 376.28-25.38 376.67-25.32 376.82-25.27L376.82-25.27Q377.18-25.15 377.18-24.71L377.18-24.71 377.18-18.82Q377.18-18.07 376.31-18.41L376.31-18.41Q376.01-18.53 375.46-18.66 374.91-18.8 373.94-18.8L373.94-18.8Q371.42-18.8 370.01-16.96 368.59-15.11 368.59-11.94L368.59-11.94 368.59-1.29Q368.59-0.56 368.29-0.28 367.98 0 367.25 0L367.25 0 362.22 0Q361.49 0 361.18-0.28 360.88-0.56 360.88-1.29L360.88-1.29 360.88-21.75Q360.88-22.34 361.12-22.66L361.12-22.66Q361.63-23.34 362.35-24.05 363.07-24.76 364.12-25.56L364.12-25.56Q364.32-25.71 364.51-25.76 364.71-25.81 364.86-25.81L364.86-25.81Q365.2-25.81 365.54-25.56L365.54-25.56Q367.57-23.97 368.37-22.85L368.37-22.85Q368.59-22.56 368.59-22.17L368.59-22.17ZM398.98-1.78L398.98-1.78Q398.27-2.88 397.47-4.85 396.66-6.81 395.88-9.22 395.1-11.62 394.45-14.03 393.81-16.43 393.41-18.44 393.02-20.46 393.02-21.61L393.02-21.61Q393.02-22.09 393.29-22.41L393.29-22.41Q394.42-23.8 396.49-25.32L396.49-25.32Q396.86-25.56 397.15-25.56L397.15-25.56Q397.47-25.56 397.81-25.32L397.81-25.32Q398.93-24.51 399.7-23.8 400.47-23.1 401.01-22.41L401.01-22.41Q401.28-22.09 401.28-21.51L401.28-21.51 401.28-21.63Q401.28-20.12 401.46-18.14 401.64-16.16 401.98-14.06 402.33-11.96 402.8-10.06 403.28-8.15 403.86-6.79L403.86-6.79 404.01-6.79Q404.65-8.15 405.35-10.35 406.06-12.55 406.71-15 407.35-17.46 407.87-19.63 408.38-21.8 408.6-23.07L408.6-23.07Q408.77-24.02 409.37-24.34 409.97-24.66 411.04-24.66L411.04-24.66 413.87-24.66Q415.09-24.66 415.62-24.29 416.14-23.93 416.27-23.07L416.27-23.07Q416.46-21.75 416.97-19.52 417.49-17.29 418.13-14.79 418.78-12.3 419.44-10.13 420.1-7.96 420.56-6.79L420.56-6.79 420.73-6.79Q421.47-8.4 422.13-10.95 422.78-13.5 423.2-16.33 423.61-19.17 423.61-21.61L423.61-21.61 423.61-21.51Q423.61-22.09 423.86-22.41L423.86-22.41Q424.42-23.1 425.18-23.8 425.93-24.51 427.01-25.32L427.01-25.32Q427.35-25.56 427.64-25.56L427.64-25.56Q427.98-25.56 428.28-25.32L428.28-25.32Q429.38-24.51 430.13-23.8 430.89-23.1 431.43-22.41L431.43-22.41Q431.67-22.09 431.67-21.56L431.67-21.56Q431.65-20.36 431.21-18.37 430.77-16.38 430.05-14.01 429.33-11.65 428.46-9.28 427.59-6.91 426.7-4.93 425.81-2.95 425.06-1.78L425.06-1.78Q424.57-1.03 424.2-0.63 423.83-0.24 423.31-0.12 422.78 0 421.76 0L421.76 0 419 0Q417.85 0 417.21-0.33 416.56-0.66 416-1.78L416-1.78Q415.66-2.44 415.17-3.99 414.68-5.54 414.17-7.39 413.65-9.23 413.26-10.84 412.87-12.45 412.75-13.21L412.75-13.21Q412.63-13.94 412.49-14.99 412.36-16.04 412.31-16.65L412.31-16.65 412.19-16.65Q412.16-16.04 412.03-15 411.9-13.96 411.75-13.18L411.75-13.18Q411.6-12.5 411.21-11.07 410.82-9.64 410.27-7.92 409.72-6.2 409.12-4.57 408.53-2.93 407.99-1.78L407.99-1.78Q407.45-0.66 406.76-0.33 406.06 0 404.55 0L404.55 0 401.72 0Q400.52 0 400.09-0.37 399.66-0.73 398.98-1.78ZM393.02-21.51L393.02-21.66 393.02-21.61Q393.02-21.56 393.02-21.51L393.02-21.51ZM431.67-21.61L431.67-21.61 431.67-21.51 431.67-21.56Q431.67-21.58 431.67-21.61ZM448.66 0.61L448.66 0.61Q442.51 0.61 438.92-2.66 435.33-5.93 435.33-12.4L435.33-12.4Q435.33-19.04 439.05-22.33 442.78-25.61 449-25.61L449-25.61Q455.01-25.61 458.62-22.38 462.24-19.14 462.24-12.84L462.24-12.84Q462.24-6.27 458.62-2.83 455.01 0.61 448.66 0.61ZM448.91-5.3L448.91-5.3Q451.59-5.3 452.96-6.97 454.33-8.64 454.33-12.7L454.33-12.7Q454.33-16.55 452.95-18.13 451.57-19.7 448.86-19.7L448.86-19.7Q446.24-19.7 444.74-18.01 443.24-16.31 443.24-12.5L443.24-12.5Q443.24-8.52 444.67-6.91 446.1-5.3 448.91-5.3ZM475.2-22.17L475.2-20.36 475.29-20.36Q477.13-25.44 481.89-25.44L481.89-25.44Q482.5-25.44 482.89-25.38 483.28-25.32 483.42-25.27L483.42-25.27Q483.79-25.15 483.79-24.71L483.79-24.71 483.79-18.82Q483.79-18.07 482.91-18.41L482.91-18.41Q482.62-18.53 482.07-18.66 481.52-18.8 480.54-18.8L480.54-18.8Q478.03-18.8 476.61-16.96 475.2-15.11 475.2-11.94L475.2-11.94 475.2-1.29Q475.2-0.56 474.89-0.28 474.59 0 473.85 0L473.85 0 468.82 0Q468.09 0 467.79-0.28 467.48-0.56 467.48-1.29L467.48-1.29 467.48-21.75Q467.48-22.34 467.73-22.66L467.73-22.66Q468.24-23.34 468.96-24.05 469.68-24.76 470.73-25.56L470.73-25.56Q470.92-25.71 471.12-25.76 471.31-25.81 471.46-25.81L471.46-25.81Q471.8-25.81 472.14-25.56L472.14-25.56Q474.17-23.97 474.98-22.85L474.98-22.85Q475.2-22.56 475.2-22.17L475.2-22.17ZM495.73-1.83L490.62 0.51Q490.11 0.73 489.89 0.73L489.89 0.73Q489.67 0.73 489.43 0.56L489.43 0.56Q488.87 0.17 488.15-1.35 487.43-2.88 487.43-6.05L487.43-6.05 487.43-34.33Q487.43-34.91 487.67-35.23L487.67-35.23Q488.7-36.57 490.67-38.13L490.67-38.13Q491.01-38.38 491.28-38.38L491.28-38.38Q491.6-38.38 491.89-38.13L491.89-38.13Q492.94-37.33 493.66-36.62 494.38-35.91 494.9-35.23L494.9-35.23Q495.14-34.91 495.14-34.33L495.14-34.33 495.14-7.54Q495.14-5.93 495.41-4.8 495.68-3.66 496.04-2.98L496.04-2.98Q496.46-2.17 495.73-1.83L495.73-1.83ZM510.67 0.61L510.67 0.61Q507.42 0.61 505.14-0.99 502.85-2.59 501.67-5.41 500.48-8.23 500.48-11.91L500.48-11.91Q500.48-16.77 502.21-19.79 503.93-22.8 507.06-24.22 510.2-25.63 514.47-25.63L514.47-25.63Q515.94-25.63 516.9-25.49 517.87-25.34 518.28-25.22L518.28-25.22 518.28-34.33Q518.28-34.91 518.53-35.23L518.53-35.23Q519.55-36.57 521.53-38.13L521.53-38.13Q521.87-38.38 522.14-38.38L522.14-38.38Q522.46-38.38 522.75-38.13L522.75-38.13Q523.8-37.33 524.52-36.62 525.24-35.91 525.75-35.23L525.75-35.23Q526-34.91 526-34.33L526-34.33 526-1.12Q526-0.66 525.68-0.33 525.36 0 524.87 0L524.87 0 521.24 0Q520.85 0 520.54-0.11 520.24-0.22 519.97-0.54L519.97-0.54 518.45-2.49 518.28-2.49Q517.97-2 517.15-1.26 516.33-0.51 514.78 0.05 513.23 0.61 510.67 0.61ZM513.03-5.64L513.03-5.64Q515.23-5.64 516.49-6.47 517.75-7.3 518.28-8.57L518.28-8.57 518.28-18.8Q517.89-19.04 516.99-19.38 516.09-19.73 514.45-19.73L514.45-19.73Q511.42-19.73 509.91-17.75 508.39-15.77 508.39-12.43L508.39-12.43Q508.39-8.96 509.66-7.3 510.93-5.64 513.03-5.64Z" opacity="1" transform="matrix(1,0,0,1,0,0)" fill="#ffffff" class="slogan-text-1" data-fill-palette-color="secondary" id="text-1"></path></svg></g></svg></g></svg></g></svg></g></svg></g><defs></defs></svg><rect width="395.52" height="93.50269965872656" fill="none" stroke="none" visibility="hidden"></rect></g></svg></g></svg>